<?xml version="1.0" encoding="utf-8"?>
<!-- Generator: Adobe Illustrator 27.9.6, SVG Export Plug-In . SVG Version: 9.03 Build 54986)  -->
<svg version="1.1" id="Layer_1" xmlns="http://www.w3.org/2000/svg" xmlns:xlink="http://www.w3.org/1999/xlink" x="0px" y="0px"
	 viewBox="0 0 41 41" style="enable-background:new 0 0 41 41;" xml:space="preserve">
<style type="text/css">
	.st0{fill:#395D6D;}
	.st1{fill:#FFFFFF;}
	.st2{opacity:0.955;fill:#FFFFFF;stroke:#395D6D;enable-background:new    ;}
	.st3{opacity:0.955;fill:#FFFFFF;stroke:#707071;enable-background:new    ;}
	.st4{fill:none;}
	.st5{fill:#7C7C7C;}
	.st6{opacity:0.955;fill:#8BBC3F;enable-background:new    ;}
	.st7{fill:#395D6D;stroke:#395D6D;stroke-width:0.5;}
	.st8{opacity:0.955;fill:#FFFFFF;stroke:#8BBC3F;stroke-width:2;enable-background:new    ;}
	.st9{fill:#8BBC3F;stroke:#8BBC3F;stroke-width:0.5;}
	.st10{fill:#D2D2D1;}
	.st11{fill:#BCBCBC;}
	.st12{fill:#8BBC3F;}
	.st13{fill:#8BBC3F;stroke:#8BBC3F;stroke-width:2;}
</style>
<g id="Group_19663" transform="translate(53)">
	<g transform="matrix(1, 0, 0, 1, 1645.5, 73.5)">
		<circle id="Ellipse_4-5" class="st2" cx="-1678" cy="-53" r="20"/>
	</g>
	<g id="Group_19652" transform="translate(1767 91)">
		<path id="Path_78_00000178195964311321132290000006769358376267133066_" class="st0" d="M-1793.2-79.8h-1.3v-1.7h-1.7v1.7h-7.5
			v-1.7h-1.7v1.7h-1.3c-2.1,0-3.8,1.7-3.8,3.8v11.8c0,2.1,1.7,3.8,3.8,3.8h13.5c2.1,0,3.8-1.7,3.8-3.8V-76
			C-1789.4-78.1-1791.1-79.8-1793.2-79.8z M-1791.1-70L-1791.1-70v5.7c0,1.1-0.9,2.1-2.1,2.1h-13.5c-1.1,0-2.1-0.9-2.1-2.1v-5l0,0
			v-4h17.7L-1791.1-70z M-1808.8-74.9V-76c0-1.1,0.9-2.1,2.1-2.1h1.3v1.4h1.7v-1.4h7.5v1.4h1.7v-1.4h1.3c1.1,0,2.1,0.9,2.1,2.1v1.1
			H-1808.8z"/>
		
			<rect id="Rectangle_95_00000002356895144541382170000005403812994550609813_" x="-1806.3" y="-71" class="st0" width="2.7" height="2.1"/>
		
			<rect id="Rectangle_96_00000049941962258229587260000002542719037892004242_" x="-1801.3" y="-71" class="st0" width="2.7" height="2.1"/>
		
			<rect id="Rectangle_97_00000085968888754125734570000016325170886451634852_" x="-1796.3" y="-71" class="st0" width="2.7" height="2.1"/>
		
			<rect id="Rectangle_98_00000142898359186855403890000001945676107788287419_" x="-1806.3" y="-66.8" class="st0" width="2.7" height="2.1"/>
		
			<rect id="Rectangle_99_00000047034757203704995950000003671238779145130129_" x="-1801.3" y="-66.8" class="st0" width="2.7" height="2.1"/>
		
			<rect id="Rectangle_100_00000087399215514357037640000005227304489628645268_" x="-1796.3" y="-66.8" class="st0" width="2.7" height="2.1"/>
	</g>
</g>
</svg>
